<svg width="80" height="53" viewBox="0 0 80 53" fill="none" xmlns="http://www.w3.org/2000/svg">
<g id="Group">
<path id="Vector" d="M76.867 33.2831C72.8328 29.2466 65.7943 29.2466 61.7578 33.2831C60.6593 34.3815 59.8592 35.6865 59.3312 37.0945V17.4535C59.3312 12.4145 55.2288 8.3125 50.1902 8.3125C45.1466 8.3125 41.0453 12.4149 41.0453 17.4535V42.9382C41.0453 47.9772 45.1466 52.0796 50.1902 52.0796C54.8087 52.0796 58.5943 48.6247 59.2071 44.1704C59.7259 45.7379 60.5564 47.1909 61.7578 48.3923C63.7735 50.413 66.4588 51.5257 69.317 51.5257C72.1707 51.5257 74.8532 50.413 76.8693 48.3923C78.8878 46.3742 80.0001 43.6894 80.0001 40.8377C80.0001 37.986 78.8878 35.3015 76.867 33.2831ZM50.1925 11.0393C53.7268 11.0393 56.6017 13.9169 56.6017 17.4489V28.8268H43.783V17.4489C43.783 13.9146 46.6578 11.0393 50.1925 11.0393ZM50.1925 49.3454C46.6532 49.3454 43.783 46.4679 43.783 42.9359V31.556H56.6017V42.934C56.6017 46.4679 53.7268 49.3454 50.1925 49.3454ZM61.3616 40.8357C61.3616 38.7117 62.1875 36.7121 63.6918 35.2102C65.1938 33.7082 67.1911 32.8818 69.3197 32.8818C70.977 32.8818 72.5542 33.4029 73.8773 34.3368L62.8212 45.3999C61.8773 44.0694 61.3616 42.4969 61.3616 40.8357ZM74.938 46.4563C72.2628 49.1342 67.8247 49.4136 64.7594 47.32L75.8063 36.2685C76.7522 37.599 77.2682 39.1715 77.2682 40.8334C77.2682 42.9594 76.44 44.954 74.938 46.4563ZM39.8486 47.5806C39.6255 48.0947 39.1221 48.4019 38.5964 48.4019C38.4133 48.4019 38.2291 48.3618 38.0483 48.2821C37.6976 48.1294 29.8531 44.6325 26.6098 38.3479C22.5699 39.5192 9.46214 42.2086 0.32577 31.4812C0.087581 31.2041 -0.027274 30.8356 0.00548662 30.4695C0.108779 29.3267 2.7385 2.45605 15.9268 0.149311C17.7244 -0.160566 26.5617 -0.114701 28.8229 1.53875C29.4446 1.99509 29.635 2.53005 29.6855 2.89851C30.089 5.90478 29.7429 7.54436 28.5685 8.21422C27.8282 8.63432 26.4387 8.84669 25.1961 8.94998C25.5095 9.93704 25.5496 10.716 25.3195 11.2802C25.1198 11.7589 24.7467 12.11 24.2669 12.2681C23.0771 12.667 19.7197 13.2994 16.6703 13.1164C16.9343 14.6781 17.2064 16.9733 17.0457 19.3791C18.4289 18.5543 20.0296 18.047 21.7559 18.047C23.9828 18.047 26.0013 18.8695 27.5996 20.1861C29.3926 17.514 33.0891 14.3459 38.5054 15.6154C39.2412 15.7854 39.6975 16.5192 39.5241 17.2535C39.3541 17.9892 38.6184 18.4479 37.8861 18.2756C32.9257 17.1243 30.2914 20.8853 29.5032 22.2747C30.4479 23.7262 31.0075 25.4463 31.0075 27.3006C31.0075 28.0537 30.3974 28.6642 29.6427 28.6642C28.8881 28.6642 28.2779 28.0537 28.2779 27.3006C28.2779 23.7038 25.3503 20.7774 21.7536 20.7774C18.1534 20.7774 15.2257 23.7038 15.2257 27.3006C15.2257 28.0537 14.6156 28.6642 13.8609 28.6642C13.1063 28.6642 12.4962 28.0537 12.4962 27.3006C12.4962 25.7011 12.9409 24.2192 13.659 22.9037C13.6544 22.743 13.6659 22.5773 13.721 22.4165C14.9228 18.9266 14.1492 14.2965 13.7939 12.5799C12.8588 12.2557 12.0468 11.8063 11.5423 11.1049C11.1021 10.4886 11.2443 9.63796 11.8591 9.19935C12.4765 8.7592 13.3271 8.90335 13.7646 9.51616C13.9735 9.81178 14.4429 10.023 15.0623 10.1721C15.1409 10.1791 15.2138 10.1945 15.2901 10.2157C17.2415 10.6123 20.4882 10.4153 22.6181 9.89888C22.4762 9.44332 22.2238 8.81933 21.9598 8.30286C21.7451 7.88391 21.7628 7.38402 22.0056 6.98049C22.245 6.57888 22.6801 6.32682 23.1507 6.31757C24.7163 6.28943 26.4048 6.10636 27.0396 5.90902C27.097 5.6612 27.1841 5.01947 27.0234 3.63004C25.4251 2.84031 18.4174 2.48495 16.3989 2.838C7.37856 4.41436 3.58449 22.5441 2.78205 30.1384C12.4017 40.8589 26.7004 35.4588 26.8446 35.4025C27.5437 35.135 28.3323 35.4707 28.6082 36.1652C31.0044 42.1543 39.0601 45.7406 39.1421 45.7776C39.8367 46.0855 40.1489 46.893 39.8486 47.5806Z" fill="#F35151"/>
</g>
</svg>
