<svg width="80" height="80" viewBox="0 0 80 80" fill="none" xmlns="http://www.w3.org/2000/svg">
<g id="Group">
<path id="Vector" d="M52.2084 65.8676C56.9698 60.1693 64.0255 58.88 70.4115 55.8451C71.7765 55.1961 70.7705 53.0795 69.4055 53.7285C62.6654 56.9331 55.438 58.348 50.4102 64.365C45.4825 70.2622 37.7941 74.9385 30.8231 76.2785C24.0631 77.578 14.6705 78.5237 7.98421 75.7642C21.6898 77.9987 36.1503 73.0363 46.0719 63.4812C50.8711 58.8594 56.2538 55.3898 62.1309 52.3643C66.5731 50.0774 69.9595 47.0044 71.9241 43.4773C73.2014 41.184 73.8017 38.8373 73.7192 36.5354C74.8753 37.3017 76.1616 38.3886 76.7953 39.6576C78.274 42.6191 78.2174 47.171 73.6239 51.065C72.467 52.0458 73.994 53.8233 75.1391 52.8525C79.7761 48.9217 81.2492 43.3315 78.8919 38.6108C77.5441 35.9119 74.4428 34.1564 73.2164 33.5452C73.0925 33.1381 72.9474 32.7338 72.7782 32.333C71.0497 28.2372 63.4609 22.5546 57.3991 18.5085C55.677 17.3592 53.5754 17.1394 51.7231 17.7612L40.1091 0.508544C39.265 -0.745188 37.3211 0.563224 38.1652 1.81711L49.6664 18.9024C47.4692 20.7148 45.9739 23.3922 43.9639 25.4168C42.1318 27.2623 39.974 28.6226 37.3925 29.1121C37.2005 26.3943 36.3368 22.5328 32.9779 22.3739L18.0773 0.503232C17.2265 -0.745969 15.2896 0.573535 16.1407 1.82258L30.7126 23.2109C29.6111 24.2304 28.8459 26.1831 28.2675 29.412C28.001 30.8996 30.3078 31.313 30.5742 29.8253C30.7801 28.6762 31.258 24.3157 33.2585 24.775C34.5857 25.0803 35.138 28.3292 35.0933 30.4277C35.0931 30.433 35.0937 30.4381 35.0937 30.4435C35.0937 30.4492 35.093 30.4549 35.093 30.4608C35.122 36.0038 34.3588 43.9725 30.5595 50.4579C28.3151 54.2891 26.03 55.8192 25.9789 55.8529C25.8325 55.9471 25.7152 56.069 25.6271 56.2066C22.1865 58.3529 19.2156 58.7177 17.1989 58.593C17.2126 58.5863 17.2264 58.5796 17.2401 58.5728C18.9769 57.7237 20.5772 56.4652 22.0312 54.8113L23.7995 55.6247C25.1748 56.2568 26.1509 54.1267 24.7789 53.4956L23.5146 52.9141C24.4779 51.5344 25.2949 50.0581 26.0056 48.5341L28.5387 49.4182C29.9635 49.9154 30.739 47.704 29.3109 47.2057L26.9291 46.3744C27.532 44.8382 28.0686 43.1976 28.5314 41.4733L31.1473 42.1784C32.5778 42.5641 33.2224 40.3107 31.757 39.9157L29.088 39.1965C29.3972 37.8052 29.662 36.372 29.8757 34.9047C30.0935 33.409 27.7746 33.0712 27.5567 34.5669C26.7052 40.4127 25.0829 46.499 21.6851 51.4174C18.1772 56.4953 12.1993 58.1899 7.05981 61.2167C2.88289 63.6757 -0.842845 66.5567 0.167171 70.9442C0.933002 74.2708 3.34939 76.2602 6.51239 77.6871C14.1026 81.1113 23.3449 80.1023 31.2652 78.5798C38.7346 77.1439 46.9552 72.1541 52.2084 65.8676ZM70.6191 33.244C71.8379 36.132 71.5812 39.2763 69.8766 42.3368C68.2215 45.3084 65.2424 48.0387 61.4635 50.0642C57.9459 39.9976 59.0768 27.1494 59.5955 22.8701C65.6898 27.2239 69.64 30.9243 70.6191 33.244ZM48.7728 23.4552C49.3768 22.7177 50.0012 21.9549 50.6622 21.1919C52.0272 19.6161 54.3643 19.3005 56.0982 20.4577C56.3672 20.6372 56.6325 20.8157 56.8952 20.9937C57.0577 21.7104 57.4631 24.3159 55.5995 27.0333C52.9095 30.9557 46.5967 33.4271 37.335 34.1915C37.3911 33.2504 37.4215 32.344 37.4322 31.4832C42.9316 30.5862 45.7743 27.1167 48.7728 23.4552ZM37.142 36.5585C37.1467 36.5582 37.1514 36.5584 37.1561 36.5581C46.6779 35.8238 53.2423 33.4243 56.7071 29.4217C56.4578 35.5074 56.7604 43.8932 59.3401 51.0923C59.3487 51.1164 59.361 51.1379 59.371 51.1611C58.0538 51.8585 56.8226 52.5384 55.6453 53.2311C52.9753 51.4352 48.3761 49.7802 40.8439 50.7641C37.741 51.1693 34.531 52.0072 31.6442 53.1255C31.9229 52.7157 32.2041 52.2773 32.4849 51.8056C35.3468 46.9974 36.6309 41.4643 37.142 36.5585ZM8.24871 63.2355C9.84161 62.2973 11.7412 61.304 13.785 60.2789C14.4119 60.5101 15.8773 60.9522 17.9205 60.9522C20.3789 60.9522 23.6722 60.3113 27.3404 57.892C33.6263 53.7462 46.2366 50.7817 53.3979 54.6139C50.3807 56.5616 47.6039 58.7522 44.446 61.7933C37.6281 68.3594 28.8501 72.5378 19.7293 73.5587C10.8301 74.555 3.07864 73.1463 2.45076 70.4185C1.90099 68.0303 3.52671 66.0163 8.24871 63.2355Z" fill="#F35151"/>
<path id="Vector_2" d="M49.7608 5.53715H71.9452C73.4565 5.53715 73.4565 3.19373 71.9452 3.19373H49.7608C48.2493 3.19373 48.2493 5.53715 49.7608 5.53715Z" fill="#F35151"/>
<path id="Vector_3" d="M65.618 14.989C65.618 15.6361 66.1426 16.1607 66.7897 16.1607H78.8193C80.3306 16.1607 80.3306 13.8173 78.8193 13.8173H66.7897C66.1424 13.8173 65.618 14.3419 65.618 14.989Z" fill="#F35151"/>
<path id="Vector_4" d="M78.8192 64.5916H66.7896C65.2783 64.5916 65.2783 66.935 66.7896 66.935H78.8192C80.3306 66.935 80.3306 64.5916 78.8192 64.5916Z" fill="#F35151"/>
<path id="Vector_5" d="M54.6038 74.405C54.602 74.405 54.6002 74.405 54.5984 74.405L48.1149 74.4341C46.6249 74.4408 46.6293 76.7775 48.1254 76.7775L54.6088 76.7485C56.1172 76.7416 56.1118 74.405 54.6038 74.405Z" fill="#F35151"/>
<path id="Vector_6" d="M74.8073 74.3909C74.8062 74.3909 74.8048 74.3909 74.8037 74.3909L60.6388 74.434C59.1488 74.4385 59.1498 76.7774 60.646 76.7774L74.8109 76.7343C76.3201 76.7297 76.3165 74.3909 74.8073 74.3909Z" fill="#F35151"/>
</g>
</svg>
