<svg width="80" height="80" viewBox="0 0 80 80" fill="none" xmlns="http://www.w3.org/2000/svg">
<g id="rowing 1" clip-path="url(#clip0_134_294)">
<g id="Group">
<path id="Vector" d="M22.5783 43.0538C23.1199 43.4098 23.8478 43.2592 24.2037 42.7173C25.1089 41.3396 25.5873 39.7368 25.5873 38.0821C25.5873 33.4224 21.7963 29.6312 17.1364 29.6312C12.4765 29.6312 8.68549 33.4224 8.68549 38.0821C8.68549 42.7419 12.4765 46.533 17.1364 46.533C18.0594 46.533 19.7806 46.5422 20.284 45.6015C20.7631 44.7064 19.887 43.6275 18.9089 43.9245C18.3369 44.0976 17.7405 44.1855 17.1364 44.1855C13.7709 44.1855 11.033 41.4476 11.033 38.0821C11.033 34.7166 13.7709 31.9787 17.1364 31.9787C20.5019 31.9787 23.2398 34.7166 23.2398 38.0821C23.2398 39.2775 22.8947 40.4344 22.2418 41.4284C21.886 41.97 22.0367 42.6976 22.5783 43.0538Z" fill="#F35151"/>
<path id="Vector_2" d="M76.3711 62.4175H71.805V59.9135H75.2756C81.1274 59.9135 81.1274 50.8366 75.2756 50.8366H63.8513C62.3371 50.8366 62.3371 53.1841 63.8513 53.1841H75.2756C78.1007 53.1841 78.1007 57.566 75.2756 57.566H58.0608C55.2357 57.566 55.2357 53.1841 58.0608 53.1841H58.8433C60.3574 53.1841 60.3574 50.8366 58.8433 50.8366H58.0608C52.209 50.8366 52.209 59.9135 58.0608 59.9135H61.5315V62.4175H55.0623L34.2305 39.2798C34.3446 37.6354 34.2235 35.9773 33.8664 34.3677L47.5697 49.3594C48.5955 50.4813 50.3217 48.8909 49.3024 47.7755C45.8604 44.0098 42.4184 40.2443 38.9765 36.4787C36.8813 34.1864 34.7861 31.8942 32.6909 29.6021C30.8727 27.6131 29.0874 25.5207 26.8631 23.9817L34.8207 16.7366V22.3522C34.8207 23.0006 35.3462 23.5259 35.9944 23.5259H39.0853C41.4366 23.5259 43.3498 21.6128 43.3498 19.2614V8.85784C43.3498 6.50645 41.4366 4.59326 39.0853 4.59326H35.9946C35.3464 4.59326 34.8208 5.11863 34.8208 5.767V13.5619L24.7486 22.7322C22.4539 21.5896 19.8692 20.9456 17.1366 20.9456C14.3847 20.9456 11.7561 21.5785 9.32354 22.8266C7.97656 23.5177 9.04857 25.6074 10.3952 24.9152C12.4929 23.8389 14.7611 23.2932 17.1366 23.2932C25.2912 23.2932 31.9256 29.9277 31.9256 38.0823C31.9256 46.237 25.2912 52.8714 17.1366 52.8714C8.9819 52.8714 2.34747 46.2368 2.34747 38.082C2.34747 34.475 3.66034 31.0011 6.04443 28.3001C7.04633 27.165 5.2862 25.6114 4.28445 26.7467C1.52163 29.877 0 33.9026 0 38.082C0 42.7618 1.88627 47.0087 4.93767 50.1043L14.105 73.0593H8.37265C6.85853 73.0593 6.85853 75.4068 8.37265 75.4068H23.866C25.3799 75.4068 25.3799 73.0593 23.866 73.0593H17.5031L25.4233 53.0772C27.8955 51.7055 29.9949 49.7408 31.5275 47.3756L51.4763 69.5408C51.6989 69.7881 52.0159 69.9292 52.3486 69.9292H65.5727V73.0592H58.7651C57.2509 73.0592 57.2509 75.4067 58.7651 75.4067H75.1974C76.7115 75.4067 76.7115 73.0592 75.1974 73.0592H67.9202V69.9292H76.3711C81.2025 69.9294 81.2168 62.4175 76.3711 62.4175ZM37.1683 6.94073H39.0854C40.1426 6.94073 41.0025 7.80069 41.0025 8.85784V19.2614C41.0025 20.3185 40.1426 21.1785 39.0854 21.1785H37.1683V6.94073ZM15.8022 70.9798L8.59551 52.9343C11.1114 54.3868 14.0287 55.2186 17.1366 55.2186C18.9627 55.2186 20.7225 54.9303 22.3742 54.3988L15.8022 70.9798ZM63.879 59.9135H69.4575V62.4175H63.879V59.9135ZM76.3711 67.5819H52.8713L32.7247 45.1967C33.1538 44.2604 33.5006 43.279 33.7567 42.2618L53.6673 64.3767C53.89 64.6238 54.2069 64.7649 54.5396 64.7649H76.3711C78.1791 64.7649 78.1818 67.5819 76.3711 67.5819Z" fill="#F35151"/>
</g>
</g>
<defs>
<clipPath id="clip0_134_294">
<rect width="80" height="80" fill="white"/>
</clipPath>
</defs>
</svg>
