<svg width="80" height="67" viewBox="0 0 80 67" fill="none" xmlns="http://www.w3.org/2000/svg">
<path id="Vector" d="M27.7365 18.905C27.7589 13.9884 30.458 9.46337 34.78 7.09146C36.7934 6.00246 39.1193 5.496 41.3158 5.44484C44.8421 5.46075 48.18 6.83866 50.68 9.26861C53.196 6.85973 56.5516 5.62197 60.0731 5.53169C62.3453 5.53942 64.5994 6.13143 66.5968 7.23592C70.8952 9.64566 73.5556 14.1982 73.529 19.1174C73.5238 20.5297 73.2934 21.9317 72.8432 23.2851C70.6416 32.9804 52.0154 44.6538 51.2273 45.143C51.0098 45.2767 50.7639 45.3447 50.518 45.3447C50.272 45.3447 50.018 45.2742 49.7978 45.1353C49.4238 44.8971 40.5673 39.2427 34.2921 32.5591C33.7856 32.0169 33.8119 31.1704 34.351 30.6635C34.8927 30.1596 35.7422 30.1833 36.2461 30.7224C41.2909 36.0982 48.2948 40.9233 50.5201 42.4074C53.9389 40.1795 68.4997 30.3011 70.2589 22.5654C70.6519 21.356 70.8406 20.2326 70.8454 19.1019C70.8664 15.1582 68.7353 11.5072 65.2873 9.57386C63.6879 8.68907 61.8814 8.21529 60.0598 8.20583C60.0413 8.20583 60.0228 8.20583 60.0073 8.20583C56.7902 8.20583 53.7661 9.61943 51.6955 12.0881C51.4414 12.3942 51.07 12.5683 50.6693 12.5683C50.2213 12.4793 49.8864 12.389 49.6353 12.0799C47.5695 9.57601 44.5329 8.13103 41.2982 8.1177C39.5888 8.16628 37.6687 8.56568 36.0574 9.43714C32.5964 11.3353 30.4318 14.9647 30.4146 18.9097C30.4094 20.0327 30.5835 21.1561 30.9382 22.2503C31.1583 23.2369 31.5835 24.2318 32.1467 25.2632L38.495 25.292L40.5699 21.856C40.8081 21.4596 41.2376 21.2159 41.6954 21.2068C42.1684 21.2576 42.5935 21.4317 42.8459 21.8208L45.9891 26.7163L49.7325 16.7253C49.9315 16.2029 50.4315 15.8572 50.9892 15.8572C50.9892 15.8572 50.9922 15.8572 50.9948 15.8572C51.555 15.8572 52.0575 16.2081 52.2458 16.7356L55.4243 25.3758L61.0215 25.4021C61.7649 25.4046 62.3616 26.0078 62.3564 26.749C62.3564 27.4859 61.7546 28.0831 61.0159 28.0831C61.0159 28.0831 61.0159 28.0831 61.0108 28.0831L54.4767 28.0543C53.9191 28.0517 53.4161 27.7009 53.2252 27.1747L50.9788 21.0555L47.5626 30.1669C47.3877 30.6407 46.9556 30.9731 46.4474 31.0268C46.4006 31.0324 46.3558 31.035 46.306 31.035C45.8533 31.035 45.4263 30.8071 45.1778 30.4185L41.7522 25.0874L40.3962 27.3333C40.1503 27.7353 39.6945 27.9012 39.2405 27.9829L28.0874 27.9292C27.3462 27.9266 26.7494 27.323 26.7524 26.5835C26.755 25.8453 27.3556 25.2486 28.0925 25.2486C28.0951 25.2486 28.0951 25.2486 28.0981 25.2486L29.1321 25.2537C28.7839 24.4579 28.5078 23.6858 28.3496 22.9476C27.9485 21.7167 27.7314 20.3122 27.7365 18.905ZM80.0002 59.3345C79.9792 63.4704 77.0445 66.8372 73.4632 66.8372H73.437L10.631 66.5439C8.84297 66.5358 7.17786 65.7112 5.94741 64.2297C4.77585 62.813 4.13569 60.9463 4.14386 58.9807C4.16192 54.8443 7.09273 51.478 10.674 51.478L13.521 51.4935L0.849758 24.1695C0.640383 23.7219 0.696703 23.197 0.995073 22.8027L10.122 10.6272L0.468412 2.35753C-0.0943627 1.87429 -0.158422 1.02777 0.321807 0.467573C0.805905 -0.0952016 1.65028 -0.156681 2.21048 0.319678L11.7329 8.47712L16.3117 2.37086C16.7437 1.7896 17.5632 1.66019 18.156 2.08152L28.4743 9.37867C29.0788 9.80688 29.2215 10.6431 28.795 11.2467C28.3668 11.8529 27.5306 11.9969 26.927 11.5687L17.6728 5.02523L3.61935 23.7731L16.4862 51.5098L73.5079 51.7794C75.2986 51.7876 76.9637 52.6122 78.1937 54.0937C79.3691 55.5017 80.011 57.3684 80.0002 59.3345ZM77.3196 59.3212C77.3248 57.9811 76.903 56.73 76.1309 55.8005C75.4138 54.9363 74.4791 54.4604 73.5002 54.4548L10.6899 54.1586C8.56695 54.1586 6.83779 56.3293 6.82747 58.994C6.82231 60.3345 7.24235 61.5856 8.01493 62.5177C8.73075 63.3788 9.66413 63.8578 10.6444 63.8629L73.4503 64.1566L73.4632 65.4971V64.1566C75.5733 64.1566 77.3089 61.9889 77.3196 59.3212ZM26.3754 55.9995C24.6763 55.9914 23.2851 57.3689 23.2769 59.0705C23.2679 60.7773 24.6462 62.1621 26.3466 62.1699C28.0457 62.178 29.4395 60.8005 29.4472 59.0989C29.4554 57.3921 28.0745 56.0069 26.3754 55.9995ZM16.0331 55.9523C14.3327 55.9415 12.9428 57.3186 12.9337 59.0202C12.9256 60.7275 14.3043 62.1118 16.0034 62.12C17.7038 62.1277 19.0976 60.7507 19.1053 59.0469C19.1135 57.3422 17.727 55.96 16.0331 55.9523ZM68.3062 56.1982C66.6071 56.19 65.2168 57.5645 65.2064 59.2691C65.1983 60.9734 66.5779 62.3582 68.2796 62.3659C69.9786 62.3741 71.369 60.9992 71.3793 59.2928C71.3875 57.5937 69.9997 56.2033 68.3062 56.1982ZM37.2973 56.049C35.5995 56.0413 34.2104 57.4183 34.2027 59.12C34.1949 60.8272 35.5707 62.2116 37.2667 62.2197C38.9697 62.2279 40.3596 60.8504 40.3691 59.1462C40.3773 57.4471 38.9963 56.0567 37.2973 56.049ZM48.2161 56.1014C46.5171 56.0933 45.1245 57.4708 45.1194 59.1724C45.1065 60.8792 46.4908 62.2614 48.1903 62.2722C49.889 62.2799 51.2819 60.9024 51.2927 59.2012C51.2974 57.4966 49.9204 56.1092 48.2161 56.1014ZM57.8005 56.1483C56.0989 56.1401 54.7089 57.5176 54.7007 59.2193C54.6926 60.9235 56.07 62.3087 57.7717 62.3191C59.4759 62.3268 60.8659 60.9497 60.8715 59.2459C60.8792 57.5434 59.497 56.1539 57.8005 56.1483Z" fill="#F35151"/>
</svg>
