<svg width="78" height="78" viewBox="0 0 78 78" fill="none" xmlns="http://www.w3.org/2000/svg">
<g id="Group 67">
<circle id="Ellipse 8" cx="39" cy="39" r="39" fill="#F35151" fill-opacity="0.89"/>
<circle id="Ellipse 11" cx="39" cy="39" r="35" fill="#FF9A9A" fill-opacity="0.4"/>
<circle id="Ellipse 9" cx="39" cy="39" r="31" fill="#FFA4A4" fill-opacity="0.41"/>
<circle id="Ellipse 12" cx="39" cy="39" r="28" fill="#F16161" fill-opacity="0.68"/>
<g id="Group">
<path id="Vector" d="M49.625 36.6739C50.0413 36.9025 50.3886 37.2388 50.6305 37.6476C50.8724 38.0564 51 38.5227 51 38.9977C51 39.4727 50.8724 39.939 50.6305 40.3478C50.3886 40.7566 50.0413 41.0929 49.625 41.3216L31.9313 51.0543C31.5272 51.2766 31.0722 51.3898 30.6111 51.3827C30.15 51.3757 29.6986 51.2486 29.3015 51.0141C28.9044 50.7795 28.5753 50.4456 28.3465 50.0452C28.1177 49.6447 27.9972 49.1916 27.9968 48.7304V29.2651C27.9972 28.8039 28.1177 28.3507 28.3465 27.9503C28.5753 27.5499 28.9044 27.2159 29.3015 26.9814C29.6986 26.7468 30.15 26.6198 30.6111 26.6127C31.0722 26.6057 31.5272 26.7189 31.9313 26.9412L49.625 36.6739ZM48.7719 39.7712C48.9102 39.6947 49.0255 39.5825 49.1058 39.4463C49.1861 39.3101 49.2284 39.1549 49.2284 38.9968C49.2284 38.8388 49.1861 38.6836 49.1058 38.5474C49.0255 38.4112 48.9102 38.299 48.7719 38.2225L31.0782 28.4898C30.9435 28.4157 30.7918 28.378 30.638 28.3804C30.4842 28.3827 30.3338 28.4251 30.2014 28.5034C30.069 28.5816 29.9593 28.693 29.8831 28.8266C29.8069 28.9602 29.7668 29.1113 29.7667 29.2651V48.7304C29.7668 48.8842 29.8069 49.0353 29.8831 49.1689C29.9593 49.3024 30.069 49.4138 30.2014 49.4921C30.3338 49.5703 30.4842 49.6127 30.638 49.6151C30.7918 49.6175 30.9435 49.5798 31.0782 49.5056L48.7719 39.7712Z" fill="white"/>
</g>
</g>
</svg>
