<svg width="80" height="80" viewBox="0 0 80 80" fill="none" xmlns="http://www.w3.org/2000/svg">
<g id="yoga-position (1) 1" clip-path="url(#clip0_134_298)">
<path id="Vector" d="M78.8458 77.6519H69.1423C72.7448 74.4394 72.4326 68.0882 68.7579 65.0399C69.5356 65.0777 70.4216 64.8127 70.4216 63.8681C70.4216 62.0512 69.8134 60.5553 68.614 59.4226C67.9152 58.7625 67.0834 58.3022 66.2418 57.9808C66.5532 57.4682 66.7327 56.8668 66.7327 56.2243C66.7327 54.3533 65.2108 52.8312 63.34 52.8312C61.4691 52.8312 59.9472 54.3533 59.9472 56.2243C59.9472 56.5982 60.0089 56.9576 60.1209 57.2943H58.1982C58.2139 53.5904 58.578 49.6638 57.6372 46.0476C55.953 39.5742 50.7126 34.4893 44.2307 32.8942V30.1028C48.5922 28.4095 51.6936 24.17 51.6936 19.217C51.6936 15.0757 49.4261 11.1786 45.8471 9.1073C46.2345 8.27031 46.4364 7.35818 46.4364 6.41729C46.4366 2.87874 43.5581 0 40.0199 0C36.4816 0 33.6032 2.87874 33.6032 6.41714C33.6032 7.35177 33.8074 8.26703 34.1947 9.10589C30.7026 11.1261 28.3462 14.9003 28.3462 19.2169C28.3462 24.0888 31.3466 28.2712 35.5956 30.0183V32.936C31.895 33.8136 29.4952 35.6247 29.3867 35.7077C29.3864 35.7078 29.3863 35.7081 29.386 35.7083C28.5107 36.3254 27.6817 37.0234 26.9223 37.7852C25.8804 38.8305 27.5051 40.5204 28.5823 39.4396C28.9336 39.0872 29.3025 38.7511 29.6847 38.4319C31.6919 41.8392 35.5787 44.0442 39.7986 44.0442C43.9997 44.0442 47.8823 41.7531 49.8882 38.2171C53.6852 41.2411 55.903 45.8201 55.8823 50.7257L55.8546 57.2941H54.3802C52.8721 57.2941 52.8696 59.6377 54.3802 59.6377H60.5842V63.1058C59.096 63.2238 57.6175 63.4528 56.156 63.7548C55.5021 63.89 53.3004 64.3709 53.2821 64.3892C53.2605 64.4107 50.4662 63.1681 50.5935 58.8421C50.5938 58.8307 50.594 58.8192 50.594 58.8076V48.2279C50.594 46.7199 48.2504 46.7174 48.2504 48.2279V58.7907C48.1568 62.1215 49.4264 64.1404 50.5832 65.2815C47.6355 66.2781 44.0882 67.7663 40.1027 69.9868C35.9931 67.6927 32.2944 66.148 29.1194 65.1107C30.2475 63.9528 31.4407 61.9574 31.3499 58.7245V48.1617C31.3499 46.6536 29.0063 46.6511 29.0063 48.1617V58.7414C29.0063 58.7529 29.0065 58.7643 29.0068 58.7759C29.1232 62.7275 26.7939 64.084 26.3694 64.2978C23.3701 63.5063 20.9916 63.1956 19.3665 63.0833V59.6377H25.5705C27.0787 59.6377 27.0891 57.2941 25.5705 57.2941H23.8658C23.8592 56.7771 23.8494 56.2596 23.8396 55.754C23.7611 51.7441 23.6869 47.9565 25.2273 44.3505C25.8198 42.9637 23.6652 42.0404 23.0721 43.4297C21.3339 47.4987 21.4164 51.7188 21.4963 55.7998C21.5059 56.2913 21.5155 56.7941 21.5219 57.2939H19.8295C19.9417 56.9574 20.0032 56.5979 20.0032 56.224C20.0032 54.353 18.4813 52.8309 16.6104 52.8309C14.7396 52.8309 13.2177 54.353 13.2177 56.224C13.2177 56.8665 13.3972 57.4677 13.7086 57.9803C12.8672 58.3017 12.0354 58.762 11.3365 59.4221C10.1372 60.5549 9.52896 62.0507 9.52896 63.8676C9.52896 64.8827 10.5022 65.0754 11.3026 65.0394C7.74187 68.3974 7.1091 74.1321 10.8736 77.6514H1.19396C0.546813 77.6514 0.0221558 78.176 0.0221558 78.8232C0.0221558 79.4704 0.546813 79.995 1.19396 79.995C1.19396 79.995 52.5192 79.9799 53.2162 79.9799C54.6242 79.9799 54.3834 77.6514 53.0257 77.6514C53.0257 77.6514 36.7794 77.5778 32.6769 77.5914C41.5635 70.9999 49.102 68.0254 53.9874 66.6867C58.818 65.363 62.0099 65.3402 62.8637 65.3774C66.3301 65.5285 69.1887 67.638 69.3478 71.3442C69.4865 74.5747 66.9215 77.3298 63.7468 77.6514H60.0134C58.5473 77.6514 58.4373 79.857 59.883 79.99C60.0784 80.008 78.8458 79.995 78.8458 79.995C80.3538 79.9955 80.3563 77.6519 78.8458 77.6519ZM35.9468 6.41714C35.9468 4.17101 37.7739 2.34362 40.0199 2.34362C42.2659 2.34362 44.0929 4.17101 44.0929 6.41714C44.0929 7.02163 43.9597 7.60644 43.7081 8.14251C42.5479 7.75503 41.3087 7.54192 40.0199 7.54192C38.7309 7.54192 37.4914 7.75503 36.3312 8.14266C36.0798 7.60566 35.9468 7.01804 35.9468 6.41714ZM40.0199 9.88553C42.8014 9.88553 45.301 11.1108 47.0118 13.0482C44.7459 17.2965 41.437 19.6659 37.1652 20.0915C33.7298 20.4343 30.9027 19.3498 30.8662 19.3356C30.8085 19.313 30.7499 19.2966 30.6914 19.2834C30.6912 19.2611 30.6896 19.2392 30.6896 19.2169C30.6898 14.0715 34.8752 9.88553 40.0199 9.88553ZM31.0734 21.86C32.1002 22.1452 33.786 22.5026 35.7886 22.5026C36.2746 22.5026 36.7798 22.4815 37.2982 22.4333C40.6578 22.12 45.168 20.5785 48.4569 15.2374C49.0288 16.4453 49.3501 17.794 49.3501 19.2169C49.3501 24.3622 45.1646 28.5481 40.02 28.5481C35.7931 28.5481 32.216 25.7217 31.0734 21.86ZM39.7988 41.7008C36.3293 41.7008 33.15 39.8687 31.5958 37.0579C32.6072 36.4547 34.5274 35.4802 36.9743 35.0419C37.5328 34.9419 37.9394 34.456 37.9394 33.8886V30.7023C38.6151 30.8245 39.3096 30.8917 40.02 30.8917C40.6556 30.8917 41.279 30.8387 41.8874 30.7404V33.8372C41.8874 34.3998 42.2873 34.883 42.84 34.9883C44.1336 35.2347 46.0033 35.7606 47.9519 36.8812C46.3898 39.7988 43.2286 41.7008 39.7988 41.7008ZM67.9363 62.6963H62.9277V59.6379C64.0926 59.736 65.8804 60.0643 67.0049 61.1264C67.4629 61.559 67.7716 62.0779 67.9363 62.6963ZM63.3403 55.175C63.9188 55.175 64.3894 55.6458 64.3894 56.2245C64.3894 56.8032 63.9188 57.2738 63.3403 57.2738C62.7617 57.2738 62.2911 56.803 62.2911 56.2245C62.2911 55.6459 62.7617 55.175 63.3403 55.175ZM16.6106 55.175C17.1892 55.175 17.6597 55.6458 17.6597 56.2245C17.6597 56.8032 17.1892 57.2738 16.6106 57.2738C16.032 57.2738 15.5614 56.803 15.5614 56.2245C15.5614 55.6459 16.032 55.175 16.6106 55.175ZM12.9406 61.1314C14.0723 60.0582 15.8588 59.7308 17.0231 59.6351V62.6963H12.0146C12.1785 62.0802 12.4855 61.5629 12.9406 61.1314ZM11.9012 67.7629C12.8339 66.5587 14.7088 65.465 17.1584 65.3847C17.9608 65.3583 25.9869 65.1227 37.7339 71.3652C37.3799 71.5797 37.0235 71.7984 36.6635 72.0245C35.4561 71.9453 23.9308 71.361 20.8027 77.6158C19.1539 77.61 17.5048 77.5976 15.8659 77.5745C11.2253 77.118 9.15914 71.303 11.9012 67.7629ZM28.9838 77.6059C27.2097 77.6131 25.4157 77.619 23.6135 77.6198C25.1737 75.8685 27.9609 75.0586 30.244 74.6848C31.2555 74.5192 32.2445 74.4256 33.129 74.3753C31.8799 75.2525 30.6034 76.1974 29.3024 77.2184C29.1644 77.3266 29.0586 77.4597 28.9838 77.6059Z" fill="#F35151"/>
</g>
<defs>
<clipPath id="clip0_134_298">
<rect width="80" height="80" fill="white"/>
</clipPath>
</defs>
</svg>
